# xmcd
#
# Track frame offsets:
#   150
#   18601
#   33076
#   47326
#   62253
#   75303
#   91579
#   106825
#   118226
#   130078
#   144405
#   157607
#   173208
#   187160
#   200135
#   213335
#   226910
#   239960
#   254135
#   270563
#
# Disc length: 3786 seconds
#
# Revision: 0
# Processed by: cddbd v1.5.2PL0 Copyright (c) Steve Scherf et al.
# Submitted via: uFREEDB ActiveX Control 1.5
#
DISCID=0c0ec814
DTITLE=Teodoro e Sampaio - Ela apaixonou no Moto-boy
DYEAR=2012
DGENRE=Blues
TTITLE0=Ela apaixonou no moto-boy
TTITLE1=Boate Azul
TTITLE2=Homem do Rádio
TTITLE3=Bença Pai, Bença Mãe
TTITLE4=O Bilau
TTITLE5=Tem um Veado me Olhando
TTITLE6=Á Buda
TTITLE7=Mala Amarela
TTITLE8=Mete Cerveja no Povo
TTITLE9=Jardineira do Adeu (Goiá)
TTITLE10=Ocê que Sabe
TTITLE11=Atiradora de Elite
TTITLE12=Não Existe Homem Feio
TTITLE13=Castelo de Areia
TTITLE14=Só a Cabecinha
TTITLE15=A Mudança
TTITLE16=Caso Pensado
TTITLE17=Casaco Verde-Estrela Caída
TTITLE18=Quatro Cantos da Casa
TTITLE19=Pitoco
EXTD=
EXTT0=
EXTT1=
EXTT2=
EXTT3=
EXTT4=
EXTT5=
EXTT6=
EXTT7=
EXTT8=
EXTT9=
EXTT10=
EXTT11=
EXTT12=
EXTT13=
EXTT14=
EXTT15=
EXTT16=
EXTT17=
EXTT18=
EXTT19=
PLAYORDER=
